<?xml version="1.0" standalone="no"?>
<!DOCTYPE svg PUBLIC "-//W3C//DTD SVG 20010904//EN"
 "http://www.w3.org/TR/2001/REC-SVG-20010904/DTD/svg10.dtd">
<svg version="1.0" xmlns="http://www.w3.org/2000/svg"
 width="260.000000pt" height="260.000000pt" viewBox="0 0 260.000000 260.000000"
 preserveAspectRatio="xMidYMid meet">
<metadata>
Created by potrace 1.14, written by Peter Selinger 2001-2017
</metadata>
<g transform="translate(0.000000,260.000000) scale(0.100000,-0.100000)"
fill="#000000" stroke="none">
<path d="M896 2588 c3 -4 -3 -8 -13 -8 -10 0 -25 -9 -33 -19 -7 -11 -17 -18
-21 -15 -5 3 -17 -4 -29 -16 -11 -11 -24 -20 -29 -20 -12 0 -191 -179 -194
-193 -1 -7 -9 -19 -17 -27 -24 -23 -50 -68 -50 -85 0 -8 -4 -15 -10 -15 -5 0
-10 -7 -10 -15 0 -8 -5 -15 -12 -15 -6 0 -9 -3 -5 -6 3 -4 -1 -20 -9 -36 -8
-16 -12 -33 -9 -38 4 -6 0 -13 -8 -15 -9 -4 -13 -21 -12 -50 0 -24 -4 -46 -10
-48 -13 -6 -11 -163 2 -197 6 -14 10 -41 9 -60 -1 -19 4 -45 12 -57 13 -21 12
-23 -13 -33 -15 -6 -25 -16 -23 -22 3 -7 -2 -19 -9 -26 -10 -11 -11 -17 -2
-28 6 -8 8 -14 3 -14 -5 0 -9 -18 -9 -40 0 -22 4 -40 8 -40 5 0 5 -5 1 -12
-11 -18 -9 -71 5 -96 6 -12 9 -22 5 -22 -4 0 3 -9 15 -19 12 -11 22 -22 22
-25 -3 -20 0 -26 9 -21 6 3 10 0 10 -7 0 -7 9 -19 20 -26 11 -7 20 -18 20 -25
0 -7 9 -23 20 -35 12 -12 18 -22 14 -22 -4 0 1 -9 10 -19 10 -11 15 -25 10
-32 -4 -7 -3 -10 4 -5 5 3 12 0 14 -6 3 -7 20 -13 39 -13 23 0 34 -5 34 -15 0
-8 6 -25 13 -37 7 -13 10 -23 7 -23 -4 0 0 -7 9 -15 8 -9 13 -22 10 -30 -4 -9
0 -15 10 -15 9 0 13 -6 10 -14 -3 -7 2 -16 10 -19 9 -4 13 -13 10 -22 -3 -8
-1 -15 5 -15 6 0 11 -6 12 -12 0 -7 16 -33 35 -58 18 -25 45 -61 58 -81 13
-20 43 -52 66 -71 36 -31 41 -41 42 -79 1 -63 -1 -81 -9 -76 -10 5 -43 -29
-36 -36 2 -3 -5 -8 -16 -12 -12 -3 -18 -11 -15 -17 5 -7 2 -8 -5 -3 -8 4 -21
-1 -32 -14 -11 -12 -30 -21 -43 -21 -13 0 -27 -7 -30 -16 -3 -8 -10 -13 -15
-10 -5 4 -25 -3 -44 -14 -19 -12 -39 -20 -43 -18 -5 1 -18 -2 -29 -8 -11 -6
-36 -10 -55 -9 -19 1 -46 -4 -60 -10 -14 -6 -42 -10 -62 -10 -21 1 -38 -3 -38
-8 0 -5 -16 -7 -35 -5 -19 2 -35 1 -35 -3 0 -4 -10 -10 -22 -14 -70 -18 -98
-29 -98 -38 0 -5 -7 -7 -15 -3 -8 3 -15 0 -15 -6 0 -6 -3 -8 -6 -5 -14 14
-144 -95 -144 -120 0 -7 -4 -13 -10 -13 -5 0 -10 -9 -10 -21 0 -11 -4 -17 -10
-14 -5 3 -10 -1 -10 -9 0 -18 5 -19 235 -15 6 0 57 0 115 0 58 0 112 0 120 0
8 0 62 0 120 0 58 0 112 0 120 0 8 0 62 0 120 0 58 0 112 0 120 0 8 0 62 0
120 0 58 0 112 0 120 0 8 0 62 0 120 0 58 0 112 0 120 0 8 0 62 0 120 0 58 0
112 0 120 0 8 0 62 0 120 0 58 0 112 0 120 0 8 0 62 0 120 0 58 0 112 0 120 0
8 0 62 0 120 0 58 0 112 0 120 0 8 1 38 0 65 0 78 -1 83 0 81 12 -6 27 -19 47
-27 41 -5 -3 -9 1 -9 9 0 16 -92 117 -106 117 -5 1 -22 11 -38 24 -16 14 -35
22 -42 19 -6 -2 -15 0 -19 6 -3 6 -17 11 -31 11 -13 0 -24 5 -24 10 0 6 -13
10 -30 10 -16 0 -30 4 -30 9 0 4 -27 8 -59 8 -33 0 -66 4 -73 10 -7 5 -39 9
-70 8 -35 -1 -56 3 -55 9 1 6 -5 11 -13 11 -8 0 -21 4 -29 9 -10 6 -12 5 -7
-2 8 -14 -62 25 -83 46 -11 11 -15 11 -22 0 -5 -7 -9 -8 -9 -3 0 6 -13 19 -30
28 -16 10 -30 15 -30 11 0 -4 -20 13 -43 38 -44 44 -65 88 -44 88 8 0 8 3 -1
12 -14 14 -1 42 42 84 48 46 87 100 78 109 -4 5 -2 5 4 2 10 -6 39 20 40 37 2
15 27 45 35 40 4 -2 6 7 4 21 -1 14 0 23 3 20 6 -6 32 43 32 62 0 8 5 11 11 7
7 -4 10 -1 7 7 -3 8 1 20 8 27 7 7 10 20 7 29 -4 11 -3 14 5 9 7 -4 13 -1 14
6 0 7 2 18 3 23 2 6 3 15 4 21 1 7 14 10 31 8 17 -2 30 1 30 7 0 6 4 7 10 4 5
-3 12 6 16 20 3 14 11 25 16 25 6 0 8 9 5 20 -3 13 0 20 10 20 8 0 13 5 11 11
-4 13 54 79 70 79 5 0 8 9 5 20 -3 11 0 20 6 20 6 0 18 15 28 33 21 41 27 242
7 262 -7 7 -11 15 -8 18 9 8 -32 27 -41 19 -5 -4 -5 -1 -1 6 4 7 1 15 -8 18
-11 4 -13 11 -6 30 5 13 7 24 5 24 -3 0 2 11 11 25 9 14 12 25 7 25 -11 0 -11
30 1 48 4 6 3 12 -2 12 -5 0 -8 15 -5 33 2 17 5 41 5 52 1 11 6 26 12 34 8 10
8 15 -2 18 -6 3 -10 9 -6 14 3 5 1 9 -4 9 -7 0 -7 51 0 79 1 3 -4 17 -11 30
-7 13 -11 34 -8 47 2 14 -1 25 -10 28 -8 3 -11 10 -8 16 3 6 -1 13 -10 16 -10
4 -13 13 -10 25 5 13 1 19 -10 19 -9 0 -13 5 -10 11 4 5 -3 18 -14 28 -12 10
-21 24 -21 31 0 6 -16 27 -35 46 -19 18 -35 38 -35 44 0 12 -65 80 -78 80 -5
0 -22 13 -39 28 -16 16 -34 27 -41 24 -7 -2 -12 4 -12 13 0 9 -4 13 -10 10 -5
-3 -10 -2 -10 3 0 10 -60 38 -72 34 -5 -1 -8 2 -8 6 0 5 -175 9 -390 9 -214 0
-387 -4 -384 -9z"/>
</g>
</svg>
